#!OML:ASF X:\für Bonn\!DataBase\2005_08_10_Bjorn_Final\c3d\bjorn.ASF
:FULLY-SPECIFIED
:DEGREES
226
root 1.1636 4.76201 20.9552 -239.964 -4.2638 -543.551
lowerback 43.6888 3.20221 11.7013
upperback 24.9917 -4.54345 4.93935
thorax 8.43643 -7.17808 -0.132041
lowerneck -0.165422 -2.43176 11.2503
upperneck 30.2291 -7.588 -4.17808
head 9.04773 -4.05606 -4.138
rclavicle -1.11319e-014 1.59028e-015
rhumerus -63.5338 -41.372 -51.2779
rradius 26.5892
rwrist -15.9814
rhand -17.6383 -0.0411984
rfingers 7.12502
rthumb 8.61936 -29.8452
lclavicle -1.11319e-014 1.59028e-015
lhumerus -52.0463 42.6465 57.0717
lradius 11.9657
lwrist -29.5819
lhand -16.5772 -368.541
lfingers 7.12502
lthumb 9.64331 21.2187
rfemur 29.5485 -65.1531 -127.135
rtibia 151.12
rfoot -51.1272 50.1899
rtoes -1.89625
lfemur -34.206 55.5128 51.2371
ltibia 146.691
lfoot -34.857 -33.9126
ltoes -28.0233
227
root 1.17004 4.7586 20.9971 -240.203 -4.49389 -543.345
lowerback 43.7406 3.22089 11.7738
upperback 24.8588 -4.27961 4.84605
thorax 8.25248 -6.95781 -0.307927
lowerneck -0.134024 -2.29736 11.0158
upperneck 30.2757 -7.27693 -4.36401
head 9.07434 -3.94533 -4.14584
rclavicle 5.96354e-015 3.49861e-014
rhumerus -64.1852 -41.4665 -51.1856
rradius 26.4167
rwrist -16.253
rhand -17.6812 -0.286856
rfingers 7.12502
rthumb 8.57803 -30.0926
lclavicle 5.96354e-015 3.49861e-014
lhumerus -53.695 44.5246 54.0524
lradius 11.8087
lwrist -31.3829
lhand -16.8137 -368.519
lfingers 7.12502
lthumb 9.41513 21.2509
rfemur 28.1016 -65.5439 -125.17
rtibia 150.909
rfoot -50.0481 50.0649
rtoes -1.96556
lfemur -35.1558 55.2593 50.006
ltibia 146.541
lfoot -34.3183 -33.9758
ltoes -27.4323
228
root 1.17277 4.75567 21.0371 -240.442 -4.68525 -543.132
lowerback 43.7699 3.23572 11.9084
upperback 24.7505 -4.02252 4.75962
thorax 8.11229 -6.73965 -0.513096
lowerneck -0.229244 -2.16315 10.7175
upperneck 30.3645 -7.00192 -4.45507
head 9.14385 -3.8451 -4.11957
rclavicle 2.06736e-014 -1.27222e-014
rhumerus -64.7506 -41.5573 -51.1692
rradius 26.2507
rwrist -16.6505
rhand -17.7082 -0.53932
rfingers 7.12502
rthumb 8.55198 -30.3461
lclavicle 2.06736e-014 -1.27222e-014
lhumerus -55.5645 46.5323 50.7057
lradius 11.6021
lwrist -33.6116
lhand -17.0798 -368.518
lfingers 7.12502
lthumb 9.15836 21.2629
rfemur 26.5901 -65.9101 -123.129
rtibia 150.675
rfoot -48.9462 50.025
rtoes -1.91872
lfemur -35.9059 55.0553 49.0164
ltibia 146.399
lfoot -33.8512 -34.0575
ltoes -26.7802
229
root 1.17388 4.75227 21.0761 -240.66 -4.87789 -542.921
lowerback 43.7694 3.25188 12.0216
upperback 24.6512 -3.78482 4.67957
thorax 7.99181 -6.53667 -0.699916
lowerneck -0.311716 -2.03085 10.3836
upperneck 30.4102 -6.71475 -4.54653
head 9.19661 -3.74312 -4.08287
rclavicle 2.0276e-014 5.725e-014
rhumerus -65.2764 -41.6532 -51.1218
rradius 26.0676
rwrist -16.9424
rhand -17.6973 -0.777166
rfingers 7.12502
rthumb 8.56242 -30.5836
lclavicle 2.0276e-014 5.725e-014
lhumerus -57.9943 48.8055 46.6272
lradius 11.317
lwrist -36.574
lhand -17.3449 -368.571
lfingers 7.12502
lthumb 8.90256 21.221
rfemur 25.0419 -66.2851 -121.087
rtibia 150.462
rfoot -47.7992 49.9295
rtoes -1.99851
lfemur -36.6263 54.8839 48.0933
ltibia 146.271
lfoot -33.3174 -34.2211
ltoes -26.0338
230
root 1.17435 4.75018 21.1146 -240.881 -5.08315 -542.737
lowerback 43.7965 3.26282 12.1008
upperback 24.5379 -3.56118 4.5761
thorax 7.84445 -6.34385 -0.887615
lowerneck -0.36577 -1.89341 10.0884
upperneck 30.4633 -6.42205 -4.6639
head 9.2453 -3.63983 -4.06037
rclavicle 7.55382e-015 3.33958e-014
rhumerus -65.801 -41.724 -51.0851
rradius 25.8861
rwrist -17.2176
rhand -17.737 -0.985731
rfingers 7.12502
rthumb 8.52419 -30.7937
lclavicle 7.55382e-015 3.33958e-014
lhumerus -60.6215 50.8546 42.4298
lradius 11.0667
lwrist -39.59
lhand -17.5285 -368.472
lfingers 7.12502
lthumb 8.7254 21.3274
rfemur 23.4106 -66.6338 -118.993
rtibia 150.221
rfoot -46.5657 49.9251
rtoes -1.89484
lfemur -37.3254 54.6734 47.0933
ltibia 146.137
lfoot -32.861 -34.2518
ltoes -25.451
231
root 1.17299 4.75079 21.1521 -241.092 -5.28338 -542.57
lowerback 43.7972 3.28613 12.1616
upperback 24.4497 -3.35219 4.47416
thorax 7.7349 -6.16605 -1.06716
lowerneck -0.447322 -1.77001 9.82564
upperneck 30.5011 -6.14995 -4.78715
head 9.29091 -3.54268 -4.04613
rclavicle 1.07344e-014 2.70347e-014
rhumerus -66.2345 -41.7733 -51.1015
rradius 25.6953
rwrist -17.5076
rhand -17.7494 -1.15358
rfingers 7.12502
rthumb 8.51223 -30.962
lclavicle 1.07344e-014 2.70347e-014
lhumerus -63.3147 52.7148 38.2706
lradius 10.8506
lwrist -42.6668
lhand -17.7023 -368.09
lfingers 7.12502
lthumb 8.55767 21.7163
rfemur 21.6257 -66.9847 -116.776
rtibia 149.974
rfoot -45.3867 49.8119
rtoes -2.12325
lfemur -37.8455 54.5175 46.263
ltibia 146.011
lfoot -32.4273 -34.2882
ltoes -24.8007
232
root 1.16988 4.75314 21.1882 -241.284 -5.46994 -542.429
lowerback 43.7672 3.33038 12.1694
upperback 24.3746 -3.15448 4.38973
thorax 7.64741 -6.00622 -1.20328
lowerneck -0.539736 -1.64067 9.55423
upperneck 30.5219 -5.86248 -4.92258
head 9.33294 -3.44038 -4.03262
rclavicle -5.96354e-015 2.38542e-014
rhumerus -66.5571 -41.7758 -51.1618
rradius 25.5039
rwrist -17.7698
rhand -17.7471 -1.36665
rfingers 7.12502
rthumb 8.51436 -31.175
lclavicle -5.96354e-015 2.38542e-014
lhumerus -66.4684 54.5106 33.6978
lradius 10.6424
lwrist -45.9633
lhand -17.8438 -367.681
lfingers 7.12502
lthumb 8.4211 22.131
rfemur 19.8136 -67.3075 -114.597
rtibia 149.738
rfoot -44.2333 49.698
rtoes -2.36392
lfemur -38.2783 54.4322 45.4978
ltibia 145.897
lfoot -32.1955 -34.1725
ltoes -24.5137
233
root 1.16579 4.75582 21.2244 -241.498 -5.64924 -542.278
lowerback 43.7616 3.36799 12.2198
upperback 24.3176 -2.9674 4.30394
thorax 7.58056 -5.85392 -1.36102
lowerneck -0.714989 -1.52309 9.35189
upperneck 30.5377 -5.59267 -5.07161
head 9.38521 -3.33698 -4.03847
rclavicle -3.10104e-014 -3.81667e-014
rhumerus -66.8247 -41.8043 -51.2855
rradius 25.3183
rwrist -18.0735
rhand -17.7448 -1.55238
rfingers 7.12502
rthumb 8.51662 -31.3606
lclavicle -3.10104e-014 -3.81667e-014
lhumerus -70.0684 56.195 28.6383
lradius 10.4227
lwrist -49.464
lhand -18.0431 -367.359
lfingers 7.12502
lthumb 8.22869 22.4608
rfemur 17.9624 -67.5689 -112.365
rtibia 149.478
rfoot -43.0916 49.6094
rtoes -2.66444
lfemur -38.702 54.2848 44.7521
ltibia 145.78
lfoot -31.7678 -34.2322
ltoes -23.9416
234
root 1.16131 4.75746 21.2596 -241.688 -5.83233 -542.113
lowerback 43.7282 3.40355 12.225
upperback 24.2651 -2.81218 4.23833
thorax 7.52364 -5.72786 -1.46857
lowerneck -0.871899 -1.38455 9.17295
upperneck 30.4915 -5.26189 -5.28394
head 9.41263 -3.20784 -4.06164
rclavicle -3.10104e-014 5.56597e-014
rhumerus -67.0303 -41.8232 -51.3823
rradius 25.1243
rwrist -18.277
rhand -17.7645 -1.72336
rfingers 7.12502
rthumb 8.49762 -31.5324
lclavicle -3.10104e-014 5.56597e-014
lhumerus -73.7424 57.5841 23.6686
lradius 10.2258
lwrist -52.7518
lhand -18.2785 -367.039
lfingers 7.12502
lthumb 8.00154 22.7891
rfemur 16.0582 -67.8485 -110.059
rtibia 149.211
rfoot -41.9439 49.4525
rtoes -3.20109
lfemur -39.1912 54.135 43.9474
ltibia 145.666
lfoot -31.45 -34.1756
ltoes -23.6107
235
root 1.15486 4.75923 21.2946 -241.892 -5.9791 -541.946
lowerback 43.703 3.43491 12.2715
upperback 24.2381 -2.67136 4.16565
thorax 7.49946 -5.61155 -1.60412
lowerneck -1.05305 -1.2485 9.08971
upperneck 30.3839 -4.92189 -5.52682
head 9.42046 -3.06399 -4.10777
rclavicle 2.54444e-014 2.78299e-014
rhumerus -67.1676 -41.8694 -51.5367
rradius 24.9198
rwrist -18.4183
rhand -17.7716 -1.92338
rfingers 7.12502
rthumb 8.49074 -31.7327
lclavicle 2.54444e-014 2.78299e-014
lhumerus -78.2582 58.9069 17.7492
lradius 10.0154
lwrist -56.4154
lhand -18.565 -366.683
lfingers 7.12502
lthumb 7.72503 23.1557
rfemur 13.8159 -68.1435 -107.346
rtibia 148.912
rfoot -40.7194 49.3373
rtoes -3.77668
lfemur -39.6196 53.9914 43.206
ltibia 145.555
lfoot -31.2108 -33.9948
ltoes -23.5867
236
root 1.14824 4.76194 21.3299 -242.089 -6.10588 -541.772
lowerback 43.6543 3.4847 12.3045
upperback 24.2338 -2.53679 4.13717
thorax 7.51122 -5.51101 -1.68907
lowerneck -1.25051 -1.11628 8.94881
upperneck 30.2046 -4.57209 -5.74759
head 9.40827 -2.91619 -4.13115
rclavicle 1.15295e-014 -1.43125e-014
rhumerus -67.2368 -41.9313 -51.6585
rradius 24.7228
rwrist -18.5727
rhand -17.7539 -2.11138
rfingers 7.12502
rthumb 8.50789 -31.92
lclavicle 1.15295e-014 -1.43125e-014
lhumerus -75.334 59.2205 20.5966
lradius 9.73778
lwrist -55.5282
lhand -19.0293 -365.375
lfingers 7.12502
lthumb 7.27691 24.4802
rfemur 11.1951 -68.4891 -104.136
rtibia 148.58
rfoot -39.4624 48.9905
rtoes -4.70108
lfemur -40.0859 53.8102 42.4272
ltibia 145.433
lfoot -31.0126 -33.7909
ltoes -23.6706
